<?xml version="1.0" encoding="UTF-8" standalone="no"?>
<svg
   xmlns:dc="http://purl.org/dc/elements/1.1/"
   xmlns:cc="http://creativecommons.org/ns#"
   xmlns:rdf="http://www.w3.org/1999/02/22-rdf-syntax-ns#"
   xmlns:svg="http://www.w3.org/2000/svg"
   xmlns="http://www.w3.org/2000/svg"
   id="svg8"
   version="1.1"
   viewBox="0 0 118.67288 138.45155"
   height="523.28143"
   width="448.52744">
  <defs
     id="defs2" />
  <metadata
     id="metadata5">
    <rdf:RDF>
      <cc:Work
         rdf:about="">
        <dc:format>image/svg+xml</dc:format>
        <dc:type
           rdf:resource="http://purl.org/dc/dcmitype/StillImage" />
        <dc:title></dc:title>
      </cc:Work>
    </rdf:RDF>
  </metadata>
  <g
     transform="translate(3.7101187,9.5420105)"
     style="display:inline"
     id="layer1">
    <g
       style="display:inline;fill:#455a64;fill-opacity:1"
       transform="matrix(0.71956199,0,0,0.71956199,14.758999,16.948431)"
       id="g4700">
      <path
         style="fill:#455a64;fill-opacity:1;stroke-width:9.16243172"
         d="M 84.282066,-36.814676 H 29.307479 v 18.324863 h 54.974587 z"
         id="path4695" />
      <path
         style="fill:#455a64;fill-opacity:1;stroke-width:34.62966537"
         d="m 214.6582,-35.253906 c -172.109419,0 -311.667966,139.558546 -311.667966,311.667966 0,172.10941 139.212252,311.66602 311.667966,311.66602 172.45572,0 311.66602,-139.55661 311.66602,-311.66602 0,-73.41488 -25.62618,-140.94375 -68.2207,-194.273435 L 507.27734,32.966797 C 492.38657,15.305669 476.1123,-1.31687 458.45117,-15.861328 L 409.27539,33.314453 C 355.5994,-9.6263277 288.07309,-35.253906 214.6582,-35.253906 Z m 0,69.259765 c 134.01679,0 242.40625,108.391411 242.40625,242.408201 0,134.0168 -108.38946,242.40821 -242.40625,242.40821 C 80.641408,518.82227 -27.75,410.43086 -27.75,276.41406 -27.75,142.39727 80.641408,34.005859 214.6582,34.005859 Z"
         transform="scale(0.26458333)"
         id="path4691" />
    </g>
  </g>
  <g
     transform="translate(3.7101187,9.5420105)"
     style="display:inline;opacity:1"
     id="layer8">
    <path
       id="path4707"
       d="m 37.217285,108.07154 c -6.393757,0 -29.6943921,-3.72812 -29.6943921,-3.72812 -4.1415708,-0.28188 -10.7100858,0.7299 -10.7100858,0.7299 0,0 2.9351164,-7.851321 5.8543147,-12.328138 C -9.3733899,69.73092 -1.8804267,43.678041 18.023608,32.346513 25.605311,16.215353 40.300696,15.366217 40.300696,15.366217 c 0,0 -2.291098,6.317097 -1.054155,10.577818 3.906196,-4.69841 10.993057,-3.704599 10.993057,-3.704599 0,0 -1.983117,9.67102 6.50019,13.623018 43.127839,23.088461 28.326684,83.979766 -19.522503,72.209086 z"
       style="opacity:1;fill:#455a64;fill-opacity:1;stroke:none;stroke-width:3.2726922;stroke-miterlimit:4;stroke-dasharray:none;stroke-opacity:1" />
  </g>
  <g
     transform="translate(3.7101187,9.5420105)"
     style="display:inline"
     id="layer6">
    <path
       id="path4618"
       d="m 7.5208454,104.34059 c 0,0 21.5050796,1.73654 35.2961186,-10.506847 -2.865421,7.156387 -14.656622,12.843487 -14.656622,12.843487 35.23729,1.73841 45.537873,-14.283124 43.849801,-36.065347 6.780643,8.430118 7.946518,17.698401 7.946518,17.698401 9.924096,-17.902653 -6.122692,-31.312472 17.250008,-60.703084 -7.098658,20.877003 6.617571,24.628132 9.834771,49.982182 0,0 4.70293,-10.911718 3.00204,-22.723474 C 124.0491,97.591491 89.983698,128.32525 57.336602,128.88545 22.822184,129.47769 7.5208454,104.34059 7.5208454,104.34059 Z"
       style="fill:#ff5722;fill-opacity:1;stroke:none;stroke-width:0.26458332px;stroke-linecap:butt;stroke-linejoin:miter;stroke-opacity:1" />
  </g>
  <g
     transform="translate(3.7101187,9.5420105)"
     style="display:inline"
     id="layer5">
    <g
       style="fill:#ff5722;fill-opacity:1"
       id="g4704">
      <path
         id="path4597"
         transform="matrix(0.26458333,0,0,0.26458333,-3.7101187,-9.5420105)"
         d="M 151.13477 108.79102 C 151.13477 108.79102 104.38841 125.91658 95.599609 169.1543 C 21.049396 203.7306 -8.1412208 308.47249 20.410156 392.70117 C 84.532839 285.05422 148.97867 283.52699 243.30078 269.60938 C 260.27368 267.10495 275.52101 250.82373 271.87891 226.99219 C 271.87891 226.99219 254.75284 231.07382 239.73633 221.63477 C 212.82949 204.7217 211.70102 166.97206 149.37891 166.2793 C 141.34319 148.95787 151.13477 108.79102 151.13477 108.79102 z M 170.375 192.69727 C 187.85529 192.50465 193.36758 196.79654 202.7832 212.89258 C 185.75853 202.37853 177.90048 204.27076 166.71484 192.79297 C 167.99129 192.74244 169.20965 192.71011 170.375 192.69727 z "
         style="fill:#ff5722;fill-opacity:1;stroke:none;stroke-width:0.99999994px;stroke-linecap:butt;stroke-linejoin:miter;stroke-opacity:1" />
      <path
         style="fill:#ff5722;fill-opacity:1;stroke:none;stroke-width:0.26458332px;stroke-linecap:butt;stroke-linejoin:miter;stroke-opacity:1"
         d="m 38.178396,31.668813 c 3.215588,-0.0084 4.490605,0.249377 7.196701,1.184823 -0.86862,-3.641548 -0.682008,-5.895448 0.286842,-8.63496 -3.70836,1.837478 -5.589783,4.382383 -7.483543,7.450137 z"
         id="path4599" />
    </g>
  </g>
</svg>
