<?xml version="1.0" encoding="UTF-8"?>
<svg version="1.1" viewBox="0 0 118.67 138.45">
 <g transform="translate(-6.1792 9.542)">
  <g transform="translate(9.8893)">
   <g transform="matrix(.71956 0 0 .71956 14.759 16.948)" fill="#455a64">
    <path d="m84.282-36.815h-54.975v18.325h54.975z" stroke-width="9.1624"/>
    <path transform="scale(.26458)" d="m214.66-35.254c-172.11 0-311.67 139.56-311.67 311.67 0 172.11 139.21 311.67 311.67 311.67 172.46 0 311.67-139.56 311.67-311.67 0-73.415-25.626-140.94-68.221-194.27l49.174-49.174c-14.891-17.661-31.165-34.284-48.826-48.828l-49.176 49.176c-53.676-42.941-121.2-68.568-194.62-68.568zm0 69.26c134.02 0 242.41 108.39 242.41 242.41 0 134.02-108.39 242.41-242.41 242.41-134.02 0-242.41-108.39-242.41-242.41 0-134.02 108.39-242.41 242.41-242.41z" stroke-width="34.63"/>
   </g>
   <path d="m37.217 108.07c-6.3938 0-29.694-3.7281-29.694-3.7281-4.1416-0.28188-10.71 0.7299-10.71 0.7299s2.9351-7.8513 5.8543-12.328c-12.041-23.014-4.5475-49.067 15.356-60.399 7.5817-16.131 22.277-16.98 22.277-16.98s-2.2911 6.3171-1.0542 10.578c3.9062-4.6984 10.993-3.7046 10.993-3.7046s-1.9831 9.671 6.5002 13.623c43.128 23.088 28.327 83.98-19.523 72.209z" fill="#455a64"/>
   <path d="m7.5208 104.34s21.505 1.7365 35.296-10.507c-2.8654 7.1564-14.657 12.843-14.657 12.843 35.237 1.7384 45.538-14.283 43.85-36.065 6.7806 8.4301 7.9465 17.698 7.9465 17.698 9.9241-17.903-6.1227-31.312 17.25-60.703-7.0987 20.877 6.6176 24.628 9.8348 49.982 0 0 4.7029-10.912 3.002-22.723 14.006 42.726-20.06 73.459-52.707 74.02-34.514 0.59224-49.816-24.545-49.816-24.545z" fill="#ff5722"/>
   <g fill="#ff5722">
    <path transform="matrix(.26458 0 0 .26458 -3.7101 -9.542)" d="m151.13 108.79s-46.746 17.126-55.535 60.363c-74.55 34.576-103.74 139.32-75.189 223.55 64.123-107.65 128.57-109.17 222.89-123.09 16.973-2.5044 32.22-18.786 28.578-42.617 0 0-17.126 4.0816-32.143-5.3574-26.907-16.913-28.035-54.663-90.357-55.355-8.0357-17.321 1.7559-57.488 1.7559-57.488zm19.24 83.906c17.48-0.19262 22.993 4.0993 32.408 20.195-17.025-10.514-24.883-8.6218-36.068-20.1 1.2764-0.0505 2.4948-0.0829 3.6602-0.0957z"/>
    <path d="m38.178 31.669c3.2156-0.0084 4.4906 0.24938 7.1967 1.1848-0.86862-3.6415-0.68201-5.8954 0.28684-8.635-3.7084 1.8375-5.5898 4.3824-7.4835 7.4501z"/>
   </g>
  </g>
 </g>
</svg>
